{"title":"Ingmar Bergman - En Passion (1969)","uid":6270972,"size":1464256414,"categoryP":"video","categoryS":"movies","magnet":"?xt=urn:btih:010dbee6b900c79bf89c0cfb3ada25a299584562&amp;dn=Ingmar+Bergman+-+En+Passion+%281969%29&amp;tr=udp%3A%2F%2Ftracker.openbittorrent.com%3A80&amp;tr=udp%3A%2F%2Fopen.demonii.com%3A1337&amp;tr=udp%3A%2F%2Ftracker.coppersurfer.tk%3A6969&amp;tr=udp%3A%2F%2Fexodus.desync.com%3A6969","seeders":4,"leechers":1,"uploader":"mfccorrea","files":5,"time":1301103484,"description":"Liv Ullmann plays the widowed, crippled Anna Fromm, who while traveling on a remote island calls upon reclusive ex-convict Andreas (Max von Sydow) in order to use his telephone. After Anna leaves, Andreas discovers she's left her purse behind; he opens it, hoping to find some identification. A letter in the purse details Anna's unhappy marriage and the depths of her loneliness. Eventually, Anna moves in with Andreas, who has become more closely acquainted with her through the intervention of Anna's friends Ellis and Evan Vergerus (Bibi Andersson and Erland Josephson). But tensions and conflicts ensue, and threaten to destroy the burgeoning relationship between Anna and Andreas. \n\n   General\n      Complete name : En Passion.avi\n      Format : AVI\n      Format/Info : Audio Video Interleave\n      File size : 1.36 GiB\n      Duration : 1h 40mn\n      Overall bit rate : 1 936 Kbps\n      Writing application : FairUse Wizard - http://fairusewizard.com      \n   Video #0\n      ID : 0\n      Format : MPEG-4 Visual\n      Format profile : AdvancedSimple@L5\n      Format settings, BVOP : Yes\n      Format settings, QPel : No\n      Format settings, GMC : No warppoints\n      Format settings, Matrix : Default (MPEG)\n      Muxing mode : Packed bitstream\n      Codec ID : XVID\n      Codec ID/Hint : XviD\n      Duration : 1h 40mn\n      Bit rate : 1 735 Kbps\n      Width : 640 pixels\n      Height : 384 pixels\n      Display aspect ratio : 1.667\n      Frame rate : 23.976 fps\n      Resolution : 24 bits\n      Colorimetry : 4:2:0\n      Scan type : Progressive\n      Bits/(Pixel*Frame) : 0.294\n      Stream size : 1.22 GiB (90%)\n      Writing library : XviD 1.2.1 (UTC 2008-12-04)\n   Audio #1\n      ID : 1\n      Format : AC-3\n      Format/Info : Audio Coding 3\n      Format profile : Dolby Digital\n      Codec ID : 2000\n      Duration : 1h 40mn\n      Bit rate mode : Constant\n      Bit rate : 192 Kbps\n      Channel(s) : 2 channels\n      Channel positions : L R\n      Sampling rate : 48.0 KHz\n      Stream size : 138 MiB (10%)\n      Alignment : Split accross interleaves\n      Interleave, duration : 42 ms (1.00 video frame)\n      Interleave, preload duration : 500 ms\n &lt;a href=&quot;\nhttp://www.imdb.com/title/tt0064793/&quot; rel=&quot;nofollow&quot; target=&quot;_NEW&quot;&gt;\nhttp://www.imdb.com/title/tt0064793/&lt;/a&gt;\n\nSwedish audio; English, French, Spanish and Portuguese subtitles\n\nIngmar Bergman - En Passion (1969)","torrent":{"xt":"urn:btih:010dbee6b900c79bf89c0cfb3ada25a299584562","amp;dn":"Ingmar+Bergman+-+En+Passion+%281969%29","amp;tr":["udp%3A%2F%2Ftracker.openbittorrent.com%3A80","udp%3A%2F%2Fopen.demonii.com%3A1337","udp%3A%2F%2Ftracker.coppersurfer.tk%3A6969","udp%3A%2F%2Fexodus.desync.com%3A6969"],"infoHash":"010dbee6b900c79bf89c0cfb3ada25a299584562","infoHashBuffer":{"type":"Buffer","data":[1,13,190,230,185,0,199,155,248,156,12,251,58,218,37,162,153,88,69,98]},"announce":[],"urlList":[]}}